<svg width="49" height="49" viewBox="0 0 49 49" fill="none" xmlns="http://www.w3.org/2000/svg">
<path d="M32.75 22.75C32.75 24.3817 32.2662 25.9767 31.3596 27.3335C30.4531 28.6902 29.1646 29.7476 27.6571 30.372C26.1497 30.9964 24.4909 31.1598 22.8905 30.8415C21.2902 30.5232 19.8202 29.7374 18.6664 28.5836C17.5126 27.4298 16.7269 25.9598 16.4085 24.3595C16.0902 22.7592 16.2536 21.1004 16.878 19.5929C17.5024 18.0854 18.5598 16.7969 19.9166 15.8904C21.2733 14.9839 22.8683 14.5 24.5 14.5C26.6873 14.5025 28.7843 15.3725 30.3309 16.9191C31.8775 18.4657 32.7475 20.5627 32.75 22.75ZM44 24.25C44 28.1067 42.8564 31.8769 40.7137 35.0836C38.571 38.2904 35.5255 40.7897 31.9623 42.2656C28.3992 43.7416 24.4784 44.1277 20.6957 43.3753C16.9131 42.6229 13.4386 40.7657 10.7114 38.0386C7.9843 35.3115 6.12711 31.8369 5.3747 28.0543C4.62228 24.2716 5.00845 20.3508 6.48436 16.7877C7.96027 13.2245 10.4596 10.179 13.6664 8.03634C16.8731 5.89366 20.6433 4.75 24.5 4.75C29.6701 4.75546 34.6268 6.81167 38.2826 10.4674C41.9383 14.1232 43.9945 19.08 44 24.25ZM41 24.25C40.9976 22.0291 40.5473 19.8315 39.6762 17.7887C38.805 15.7458 37.5307 13.8996 35.9296 12.3605C34.3286 10.8214 32.4336 9.62098 30.3579 8.83105C28.2823 8.04113 26.0686 7.67791 23.8494 7.76312C15.0181 8.10437 7.97563 15.46 8.00001 24.2969C8.00848 28.3197 9.49217 32.1998 12.17 35.2019C13.2606 33.6201 14.6458 32.2635 16.25 31.2063C16.3868 31.1159 16.5494 31.0729 16.7129 31.0837C16.8765 31.0945 17.032 31.1587 17.1556 31.2662C19.1941 33.0294 21.7992 33.9997 24.4944 33.9997C27.1896 33.9997 29.7947 33.0294 31.8331 31.2662C31.9568 31.1587 32.1123 31.0945 32.2758 31.0837C32.4394 31.0729 32.602 31.1159 32.7388 31.2063C34.345 32.2629 35.7322 33.6196 36.8244 35.2019C39.5155 32.1888 41.002 28.2899 41 24.25Z" fill="#1E1E1E"/>
</svg>
